<?xml version="1.0" encoding="utf-8"?>
<!-- Generator: Adobe Illustrator 23.0.1, SVG Export Plug-In . SVG Version: 6.00 Build 0)  -->
<svg version="1.1" id="Camada_1" xmlns="http://www.w3.org/2000/svg" xmlns:xlink="http://www.w3.org/1999/xlink" x="0px" y="0px"
	 viewBox="0 0 100 100" style="enable-background:new 0 0 100 100;" xml:space="preserve">
<style type="text/css">
	.st0{fill:#FEFEFE;}
	.st1{fill:#121212;}
	.st2{fill:#FF9800;}
</style>
<path class="st0" d="M15.7,24.5c4.1-5.5,9.4-9.9,15.5-13S44,6.9,50.9,7c6.8,0.1,13.6,1.8,19.6,4.9c6.1,3.1,11.3,7.7,15.2,13.3
	l-10.4,7.4c-2.8-3.9-6.5-7.1-10.7-9.4s-9-3.4-13.8-3.4c-4.8-0.1-9.6,1.1-13.9,3.2s-8.1,5.3-10.9,9.1L15.7,24.5z"/>
<path class="st1" d="M90.2,32.8c2.7,6.3,3.9,13.1,3.4,19.9c-0.5,6.8-2.5,13.4-6,19.3c-3.5,5.9-8.3,10.8-14.1,14.5
	c-5.8,3.6-12.4,5.9-19.1,6.5l-1.2-12.8c4.8-0.5,9.4-2,13.5-4.6c4.1-2.6,7.5-6.1,9.9-10.2c2.5-4.2,3.9-8.8,4.2-13.6
	c0.3-4.8-0.5-9.6-2.4-14L90.2,32.8z"/>
<path class="st2" d="M22.7,37.3c-2,4.4-2.9,9.2-2.8,14c0.2,4.8,1.5,9.5,3.9,13.7c2.4,4.2,5.7,7.8,9.7,10.4c4,2.7,8.6,4.4,13.4,4.9
	L45.3,93c-6.8-0.8-13.3-3.2-19-7c-5.7-3.8-10.4-8.9-13.7-14.8c-3.3-6-5.2-12.6-5.5-19.4c-0.3-6.8,1.1-13.6,4-19.9L22.7,37.3z"/>
</svg>
