<svg height="20" viewBox="0 0 30 20" xmlns="http://www.w3.org/2000/svg" stroke="#121212">
    <path
        d="M29.4746 12.889C29.4746 13.6169 28.0188 14.1021 26.3204 14.3448C25.2285 12.2824 23.0448 10.7052 20.4971 9.61339C20.7398 9.24943 20.9824 9.0068 21.225 8.64285H22.1956C25.9564 8.52153 29.4746 10.8266 29.4746 12.889ZM8.608 8.52153H7.63745C3.87661 8.52153 0.358398 10.8266 0.358398 12.889C0.358398 13.6169 1.81421 14.1021 3.51266 14.3448C4.60451 12.2824 6.78823 10.7052 9.3359 9.61339L8.608 8.52153ZM14.9165 9.7347C17.5855 9.7347 19.7692 7.55099 19.7692 4.882C19.7692 2.21301 17.5855 0.0292969 14.9165 0.0292969C12.2475 0.0292969 10.0638 2.21301 10.0638 4.882C10.0638 7.55099 12.2475 9.7347 14.9165 9.7347ZM14.9165 10.9479C9.94249 10.9479 5.2111 14.1021 5.2111 17.0138C5.2111 19.4401 14.9165 19.4401 14.9165 19.4401C14.9165 19.4401 24.6219 19.4401 24.6219 17.0138C24.6219 14.1021 19.8905 10.9479 14.9165 10.9479ZM21.8316 7.30835H22.1956C24.258 7.30835 25.8351 5.73122 25.8351 3.66882C25.8351 1.60643 24.258 0.0292969 22.1956 0.0292969C21.589 0.0292969 21.1037 0.150615 20.6184 0.39325C21.589 1.60643 22.1956 3.18355 22.1956 4.882C22.1956 5.73122 22.0742 6.58045 21.8316 7.30835ZM7.63745 7.30835H8.00141C7.75877 6.58045 7.63745 5.73122 7.63745 4.882C7.63745 3.18355 8.24404 1.60643 9.21458 0.39325C8.72931 0.150615 8.24404 0.0292969 7.63745 0.0292969C5.57506 0.0292969 3.99793 1.60643 3.99793 3.66882C3.99793 5.73122 5.57506 7.30835 7.63745 7.30835Z">
    </path>
</svg>