<svg width="200" height="200" viewBox="0 0 200 200" fill="none" xmlns="http://www.w3.org/2000/svg">
<circle cx="100" cy="100" r="100" fill="#F53030"/>
<rect x="55" y="44" width="91" height="15.4745" rx="5" fill="#FEFEFE"/>
<rect x="55" y="65.9358" width="91" height="90.7838" rx="5" fill="#FEFEFE"/>
<rect x="69" y="91" width="43" height="3" rx="1.5" fill="#F53030"/>
<rect x="69" y="103" width="62" height="3" rx="1.5" fill="#F53030"/>
<rect x="69" y="115" width="58" height="3" rx="1.5" fill="#F53030"/>
<rect x="69" y="127" width="62" height="3" rx="1.5" fill="#F53030"/>
<rect x="69" y="139" width="27" height="3" rx="1.5" fill="#F53030"/>
<rect x="69" y="79" width="58" height="3" rx="1.5" fill="#F53030"/>
<path d="M83.9646 53.9938C84.1137 53.9938 84.237 54.0425 84.3344 54.14C84.4376 54.2317 84.4892 54.3521 84.4892 54.5012C84.4892 54.6445 84.4376 54.7649 84.3344 54.8624C84.237 54.9541 84.1137 55 83.9646 55H81.1696C81.0206 55 80.8944 54.9513 80.7912 54.8538C80.6938 54.7506 80.645 54.6245 80.645 54.4754V49.5046C80.645 49.3555 80.6966 49.2323 80.7998 49.1348C80.903 49.0316 81.0349 48.98 81.1954 48.98C81.3388 48.98 81.462 49.0316 81.5652 49.1348C81.6684 49.2323 81.72 49.3555 81.72 49.5046V53.9938H83.9646Z" fill="#F53030"/>
<path d="M86.1019 54.4754C86.1019 54.6245 86.0532 54.7506 85.9557 54.8538C85.8583 54.9513 85.735 55 85.5859 55C85.4369 55 85.3136 54.9513 85.2161 54.8538C85.1187 54.7506 85.0699 54.6245 85.0699 54.4754V50.9236C85.0699 50.7745 85.1187 50.6513 85.2161 50.5538C85.3136 50.4506 85.4369 50.399 85.5859 50.399C85.735 50.399 85.8583 50.4506 85.9557 50.5538C86.0532 50.6513 86.1019 50.7745 86.1019 50.9236V54.4754ZM85.5773 49.84C85.3824 49.84 85.2448 49.8085 85.1645 49.7454C85.0843 49.6823 85.0441 49.5705 85.0441 49.41V49.2466C85.0441 49.0861 85.0871 48.9743 85.1731 48.9112C85.2591 48.8481 85.3967 48.8166 85.5859 48.8166C85.7866 48.8166 85.9271 48.8481 86.0073 48.9112C86.0876 48.9743 86.1277 49.0861 86.1277 49.2466V49.41C86.1277 49.5763 86.0847 49.6909 85.9987 49.754C85.9185 49.8113 85.778 49.84 85.5773 49.84Z" fill="#F53030"/>
<path d="M90.7143 50.313C90.8634 50.313 90.9867 50.3617 91.0841 50.4592C91.1816 50.5567 91.2303 50.6828 91.2303 50.8376V54.6646C91.2303 55.3641 91.0125 55.8801 90.5767 56.2126C90.1467 56.5509 89.5992 56.72 88.9341 56.72C88.7621 56.72 88.5242 56.6913 88.2203 56.634C87.9222 56.5767 87.7101 56.5193 87.5839 56.462C87.303 56.3416 87.1625 56.1753 87.1625 55.9632C87.1625 55.9231 87.1711 55.8772 87.1883 55.8256C87.2227 55.6995 87.2801 55.602 87.3603 55.5332C87.4463 55.4701 87.5381 55.4386 87.6355 55.4386C87.6929 55.4386 87.7473 55.4472 87.7989 55.4644C87.8219 55.4701 87.9623 55.5217 88.2203 55.6192C88.4841 55.7224 88.722 55.774 88.9341 55.774C89.3584 55.774 89.6737 55.688 89.8801 55.516C90.0923 55.3497 90.1983 55.1118 90.1983 54.8022V54.3894C90.0722 54.5671 89.8801 54.7277 89.6221 54.871C89.3699 55.0143 89.0975 55.086 88.8051 55.086C88.4038 55.086 88.0369 54.9857 87.7043 54.785C87.3775 54.5786 87.1195 54.2948 86.9303 53.9336C86.7411 53.5724 86.6465 53.1625 86.6465 52.7038C86.6465 52.2451 86.7383 51.8352 86.9217 51.474C87.1109 51.1071 87.3661 50.8233 87.6871 50.6226C88.0139 50.4162 88.3751 50.313 88.7707 50.313C89.0631 50.313 89.3355 50.3732 89.5877 50.4936C89.84 50.614 90.0435 50.7602 90.1983 50.9322V50.8376C90.1983 50.6885 90.2471 50.5653 90.3445 50.4678C90.442 50.3646 90.5653 50.313 90.7143 50.313ZM88.9341 54.14C89.3183 54.14 89.6307 54.0053 89.8715 53.7358C90.1181 53.4606 90.2413 53.1166 90.2413 52.7038C90.2413 52.291 90.1181 51.947 89.8715 51.6718C89.6307 51.3966 89.3183 51.259 88.9341 51.259C88.55 51.259 88.2375 51.3966 87.9967 51.6718C87.7559 51.947 87.6355 52.291 87.6355 52.7038C87.6355 53.1166 87.7559 53.4606 87.9967 53.7358C88.2375 54.0053 88.55 54.14 88.9341 54.14Z" fill="#F53030"/>
<path d="M94.5053 50.313C95.0729 50.313 95.4657 50.4879 95.6835 50.8376C95.9014 51.1816 96.0103 51.6603 96.0103 52.2738V54.4754C96.0103 54.6245 95.9616 54.7506 95.8641 54.8538C95.7667 54.9513 95.6434 55 95.4943 55C95.3453 55 95.222 54.9513 95.1245 54.8538C95.0271 54.7506 94.9783 54.6245 94.9783 54.4754V52.2738C94.9783 51.9585 94.9153 51.7119 94.7891 51.5342C94.6687 51.3507 94.4537 51.259 94.1441 51.259C93.8231 51.259 93.5708 51.3565 93.3873 51.5514C93.2096 51.7406 93.1207 51.9814 93.1207 52.2738V54.4754C93.1207 54.6245 93.072 54.7506 92.9745 54.8538C92.8771 54.9513 92.7538 55 92.6047 55C92.4557 55 92.3324 54.9513 92.2349 54.8538C92.1375 54.7506 92.0887 54.6245 92.0887 54.4754V49.1606C92.0887 49.0115 92.1375 48.8883 92.2349 48.7908C92.3324 48.6876 92.4557 48.636 92.6047 48.636C92.7538 48.636 92.8771 48.6876 92.9745 48.7908C93.072 48.8883 93.1207 49.0115 93.1207 49.1606V51.0612C93.2755 50.8548 93.4705 50.6799 93.7055 50.5366C93.9463 50.3875 94.2129 50.313 94.5053 50.313Z" fill="#F53030"/>
<path d="M99.0886 54.0282C99.1689 54.0282 99.2405 54.0683 99.3036 54.1486C99.3724 54.2231 99.4068 54.3235 99.4068 54.4496C99.4068 54.6044 99.3208 54.7363 99.1488 54.8452C98.9825 54.9484 98.7933 55 98.5812 55C98.2257 55 97.9247 54.9255 97.6782 54.7764C97.4374 54.6216 97.317 54.2977 97.317 53.8046V51.431H96.9214C96.7838 51.431 96.6691 51.3851 96.5774 51.2934C96.4857 51.2017 96.4398 51.087 96.4398 50.9494C96.4398 50.8175 96.4857 50.7086 96.5774 50.6226C96.6691 50.5309 96.7838 50.485 96.9214 50.485H97.317V49.9346C97.317 49.7855 97.3657 49.6623 97.4632 49.5648C97.5664 49.4616 97.6925 49.41 97.8416 49.41C97.9849 49.41 98.1053 49.4616 98.2028 49.5648C98.3003 49.6623 98.349 49.7855 98.349 49.9346V50.485H98.9596C99.0972 50.485 99.2119 50.5309 99.3036 50.6226C99.3953 50.7143 99.4412 50.829 99.4412 50.9666C99.4412 51.0985 99.3953 51.2103 99.3036 51.302C99.2119 51.388 99.0972 51.431 98.9596 51.431H98.349V53.7616C98.349 53.882 98.3805 53.9709 98.4436 54.0282C98.5067 54.0798 98.5927 54.1056 98.7016 54.1056C98.7475 54.1056 98.8105 54.0941 98.8908 54.0712C98.9596 54.0425 99.0255 54.0282 99.0886 54.0282Z" fill="#F53030"/>
<path d="M104.783 48.98C104.921 48.98 105.033 49.0259 105.119 49.1176C105.205 49.2093 105.248 49.324 105.248 49.4616V54.4754C105.248 54.6245 105.196 54.7506 105.093 54.8538C104.995 54.9513 104.872 55 104.723 55C104.643 55 104.563 54.9885 104.482 54.9656C104.408 54.9369 104.353 54.8997 104.319 54.8538L101.163 50.8462V54.5184C101.163 54.656 101.117 54.7707 101.025 54.8624C100.939 54.9541 100.824 55 100.681 55C100.544 55 100.432 54.9541 100.346 54.8624C100.26 54.7707 100.217 54.656 100.217 54.5184V49.5046C100.217 49.3555 100.265 49.2323 100.363 49.1348C100.466 49.0316 100.592 48.98 100.741 48.98C100.827 48.98 100.91 48.9972 100.991 49.0316C101.077 49.066 101.14 49.1119 101.18 49.1692L104.31 53.1596V49.4616C104.31 49.324 104.353 49.2093 104.439 49.1176C104.531 49.0259 104.646 48.98 104.783 48.98Z" fill="#F53030"/>
<path d="M110.617 52.7038C110.617 53.1625 110.514 53.5753 110.308 53.9422C110.101 54.3034 109.817 54.5843 109.456 54.785C109.101 54.9857 108.708 55.086 108.278 55.086C107.842 55.086 107.447 54.9857 107.091 54.785C106.736 54.5843 106.455 54.3034 106.248 53.9422C106.042 53.5753 105.939 53.1625 105.939 52.7038C105.939 52.2451 106.042 51.8352 106.248 51.474C106.455 51.1071 106.736 50.8233 107.091 50.6226C107.447 50.4162 107.842 50.313 108.278 50.313C108.708 50.313 109.101 50.4162 109.456 50.6226C109.817 50.8233 110.101 51.1071 110.308 51.474C110.514 51.8352 110.617 52.2451 110.617 52.7038ZM109.585 52.7038C109.585 52.4229 109.525 52.1735 109.405 51.9556C109.29 51.732 109.132 51.56 108.932 51.4396C108.737 51.3192 108.519 51.259 108.278 51.259C108.037 51.259 107.816 51.3192 107.616 51.4396C107.421 51.56 107.263 51.732 107.143 51.9556C107.028 52.1735 106.971 52.4229 106.971 52.7038C106.971 52.9847 107.028 53.2341 107.143 53.452C107.263 53.6699 107.421 53.839 107.616 53.9594C107.816 54.0798 108.037 54.14 108.278 54.14C108.519 54.14 108.737 54.0798 108.932 53.9594C109.132 53.839 109.29 53.6699 109.405 53.452C109.525 53.2341 109.585 52.9847 109.585 52.7038Z" fill="#F53030"/>
<path d="M113.44 54.0282C113.52 54.0282 113.592 54.0683 113.655 54.1486C113.724 54.2231 113.758 54.3235 113.758 54.4496C113.758 54.6044 113.672 54.7363 113.5 54.8452C113.334 54.9484 113.145 55 112.933 55C112.577 55 112.276 54.9255 112.03 54.7764C111.789 54.6216 111.669 54.2977 111.669 53.8046V51.431H111.273C111.135 51.431 111.021 51.3851 110.929 51.2934C110.837 51.2017 110.791 51.087 110.791 50.9494C110.791 50.8175 110.837 50.7086 110.929 50.6226C111.021 50.5309 111.135 50.485 111.273 50.485H111.669V49.9346C111.669 49.7855 111.717 49.6623 111.815 49.5648C111.918 49.4616 112.044 49.41 112.193 49.41C112.337 49.41 112.457 49.4616 112.554 49.5648C112.652 49.6623 112.701 49.7855 112.701 49.9346V50.485H113.311C113.449 50.485 113.563 50.5309 113.655 50.6226C113.747 50.7143 113.793 50.829 113.793 50.9666C113.793 51.0985 113.747 51.2103 113.655 51.302C113.563 51.388 113.449 51.431 113.311 51.431H112.701V53.7616C112.701 53.882 112.732 53.9709 112.795 54.0282C112.858 54.0798 112.944 54.1056 113.053 54.1056C113.099 54.1056 113.162 54.0941 113.242 54.0712C113.311 54.0425 113.377 54.0282 113.44 54.0282Z" fill="#F53030"/>
<path d="M118.568 52.592C118.563 52.7296 118.508 52.8414 118.405 52.9274C118.302 53.0134 118.181 53.0564 118.044 53.0564H115.206C115.275 53.3947 115.432 53.6613 115.679 53.8562C115.925 54.0454 116.203 54.14 116.513 54.14C116.748 54.14 116.931 54.1199 117.063 54.0798C117.195 54.0339 117.298 53.9881 117.373 53.9422C117.453 53.8906 117.508 53.8562 117.536 53.839C117.64 53.7874 117.737 53.7616 117.829 53.7616C117.949 53.7616 118.052 53.8046 118.138 53.8906C118.224 53.9766 118.267 54.0769 118.267 54.1916C118.267 54.3464 118.187 54.4869 118.027 54.613C117.866 54.7449 117.651 54.8567 117.382 54.9484C117.112 55.0401 116.84 55.086 116.565 55.086C116.083 55.086 115.662 54.9857 115.3 54.785C114.945 54.5843 114.67 54.3091 114.475 53.9594C114.28 53.6039 114.182 53.2055 114.182 52.764C114.182 52.2709 114.286 51.8381 114.492 51.4654C114.698 51.0927 114.971 50.8089 115.309 50.614C115.647 50.4133 116.008 50.313 116.393 50.313C116.771 50.313 117.126 50.4162 117.459 50.6226C117.797 50.829 118.067 51.1071 118.267 51.4568C118.468 51.8065 118.568 52.1849 118.568 52.592ZM116.393 51.259C115.727 51.259 115.335 51.5715 115.214 52.1964H117.468V52.1362C117.445 51.8954 117.327 51.689 117.115 51.517C116.903 51.345 116.662 51.259 116.393 51.259Z" fill="#F53030"/>
</svg>
