<svg xmlns="http://www.w3.org/2000/svg" viewBox="0 0 50 49" height="55" fill="#121212">
    <path d="M23.8,0.7C11.4,0.7,1.3,10.8,1.3,23.2s10.1,22.5,22.5,22.5c12.4,0,22.5-10.1,22.5-22.5S36.2,0.7,23.8,0.7z
					M18.3,32.6h-4.6V17.9h4.6V32.6z M16,16.1c-1.4,0-2.4-1-2.4-2.3c0-1.3,1-2.3,2.4-2.3c1.5,0,2.4,1,2.4,2.3
				   C18.4,15.1,17.5,16.1,16,16.1z M34.9,32.6h-4.6v-8.1c0-1.9-0.7-3.2-2.3-3.2c-1.3,0-2,0.9-2.3,1.7c-0.1,0.3-0.2,0.7-0.2,1.1v8.5H21
				   v-10c0-1.8-0.1-3.4-0.1-4.7h4l0.2,2h0.1c0.6-1,2.1-2.4,4.5-2.4c3,0,5.2,2,5.2,6.3V32.6z" />
</svg>