<svg width="500" height="500" viewBox="0 0 289 289" fill="none" xmlns="http://www.w3.org/2000/svg">
<path d="M144.886 265.999C166.211 265.932 187.143 260.252 205.578 249.532C224.013 238.812 239.302 223.428 249.908 204.927C260.514 186.426 266.064 165.459 265.999 144.133C265.935 122.808 260.259 101.875 249.542 83.4383L219.463 100.923C227.112 114.08 231.163 129.019 231.209 144.238C231.255 159.457 227.294 174.42 219.725 187.624C212.156 200.827 201.245 211.806 188.089 219.457C174.933 227.107 159.994 231.16 144.775 231.209L144.886 265.999Z" fill="#121212"/>
<path d="M39.031 84.1797C28.4436 102.692 22.9151 123.664 23.001 144.989C23.0869 166.315 28.7841 187.242 39.5202 205.668C50.2563 224.094 65.653 239.369 84.1631 249.96C102.673 260.55 123.645 266.082 144.97 265.999L144.836 231.208C129.617 231.267 114.65 227.32 101.44 219.762C88.2304 212.204 77.2425 201.302 69.5806 188.153C61.9188 175.003 57.8529 160.068 57.7916 144.849C57.7303 129.63 61.6758 114.663 69.2315 101.452L39.031 84.1797Z" fill="#FF9800"/>
<path d="M249.58 83.5046C238.864 65.044 223.474 49.7321 204.959 39.1106C186.444 28.489 165.458 22.9325 144.113 23.0006C122.767 23.0687 101.817 28.7589 83.3698 39.4983C64.923 50.2378 49.6309 65.6475 39.0331 84.1761L69.233 101.45C76.7962 88.2265 87.7094 77.2293 100.874 69.565C114.039 61.9008 128.99 57.8399 144.223 57.7913C159.457 57.7428 174.434 61.7081 187.647 69.2883C200.86 76.8684 211.844 87.7958 219.491 100.97L249.58 83.5046Z" fill="#FEFEFE"/>
</svg>
