<svg width="149" height="149" viewBox="0 0 149 149" fill="none" xmlns="http://www.w3.org/2000/svg">
<rect x="0.864258" y="0.960449" width="147.293" height="147.293" rx="73.6464" fill="#2F80ED"/>
<g clip-path="url(#clip0)">
<path d="M39.7188 111.49C34.8878 106.044 50.3997 97.3504 60.777 78.0518L113.196 84.6556C108.828 110.4 69.7285 124.607 40.6979 112.157C40.3326 112.001 39.9825 111.787 39.7188 111.49Z" fill="#333333"/>
<path d="M123.502 61.0105C125.032 59.988 131.155 61.8625 122.311 43.9692L113.467 55.8981C113.467 55.8981 119.93 60.8401 123.502 61.0105Z" fill="#333333"/>
<path d="M29.5609 107.011C23.6469 104.132 39.1924 87.3701 50.3447 73.9941L59.6382 77.3804C58.2233 81.1335 53.6163 87.2935 48.317 93.6347C46.9905 95.0105 45.8277 96.241 44.8068 97.348C39.5029 103.655 37.5737 106.437 36.9958 109.042C36.9958 109.042 35.475 109.889 29.5609 107.011Z" fill="#333333"/>
<path d="M66.5515 53.9686C68.6751 49.3713 81.644 0.964852 81.644 0.964852H117.425C118.088 0.4938 123.512 37.97 123.191 43.4694C123.191 43.4694 120.308 51.9365 113.695 57.6941C107.081 63.4517 112.508 65.8225 108.777 70.3947C108.777 70.3947 115.899 79.3697 113.525 84.958C114.065 86.0054 63.9139 80.2863 60.277 77.6763C60.277 77.6763 53.9063 76.3863 50.4414 74.2895C50.7179 66.2352 64.4278 58.5659 66.5515 53.9686Z" fill="#FEFEFE"/>
</g>
<defs>
<clipPath id="clip0">
<rect x="0.864258" y="0.960449" width="147.293" height="147.293" rx="73.6464" fill="white"/>
</clipPath>
</defs>
</svg>
