<svg width="1088" height="375" viewBox="0 0 1088 375" fill="none" xmlns="http://www.w3.org/2000/svg">
<path d="M209.387 296.654C195.502 299.092 181.371 299.823 166.755 301.77L122.171 171.191V307.374C108.285 308.836 95.6172 310.785 82.4615 312.733V63.2665H119.493L170.165 204.812V63.2665H209.387V296.654ZM286.128 154.624C301.233 154.624 324.377 153.893 338.263 153.893V192.871C320.965 192.871 300.746 192.871 286.128 193.602V251.585C309.029 250.124 331.929 248.173 355.072 247.442V284.957L247.148 293.486V63.2665H355.072V102.246H286.128V154.624ZM500.026 102.247H459.585V281.551C446.43 281.551 433.274 281.551 420.608 282.037V102.247H380.167V63.2665H500.028L500.026 102.247ZM563.367 151.945H616.72V190.923H563.367V279.358H525.116V63.2665H634.017V102.246H563.367V151.945ZM697.358 245.251C719.528 245.736 741.94 247.445 763.623 248.661V287.153C728.786 284.959 693.948 282.77 658.38 282.037V63.2665H697.358V245.251ZM796.511 289.833C808.936 290.565 822.091 291.296 834.759 292.756V63.2665H796.511V289.833ZM1005.54 63.2665L956.083 181.91L1005.54 312.733C990.92 310.785 976.303 308.105 961.685 305.668L933.67 233.558L905.169 299.823C891.036 297.385 877.394 296.654 863.266 294.705L913.452 180.447L868.137 63.2665H910.038L935.618 128.8L962.905 63.2665H1005.54Z" fill="#D81F26"/>
</svg>
