<svg width="328" height="86" viewBox="0 0 328 86" fill="none" xmlns="http://www.w3.org/2000/svg">
<path d="M48.6043 57.0435L35.382 43.8213C35.382 43.8213 28.5091 50.6942 24.7781 54.4253C24.7781 54.4253 5.86111 35.037 5.80874 34.7883C5.78256 35.2072 5.76947 35.6261 5.76947 36.045C5.76947 38.5717 6.28003 41.2161 7.31425 43.8867C8.17827 46.1254 9.40886 48.4556 10.9798 50.799C13.4672 54.5169 16.8971 58.3919 21.1518 62.3193C28.1949 68.8257 35.1857 73.3291 35.4737 73.5124L37.2672 74.6644C38.0658 75.175 39.0869 75.175 39.8855 74.6644L41.679 73.5124C41.9801 73.3291 48.9446 68.8388 56.0009 62.3193C58.318 60.1854 60.3865 58.0646 62.1931 55.97L55.9354 49.5815L48.6043 57.0435Z" fill="#AA67E8"/>
<path d="M69.7991 28.3081C68.778 25.9517 67.3118 23.8178 65.479 22.0243C63.6462 20.2177 61.473 18.7907 59.1035 17.8089C56.6423 16.7878 53.9979 16.2641 51.3273 16.2641C47.5831 16.2641 43.9307 17.2852 40.7495 19.2227C39.9902 19.6809 39.2701 20.1915 38.5894 20.7544C37.9086 20.2046 37.1886 19.694 36.4293 19.2227C33.2481 17.2852 29.5957 16.2641 25.8515 16.2641C23.1547 16.2641 20.5365 16.7747 18.0753 17.8089C15.6796 18.8038 13.5326 20.2177 11.6867 22.0243C9.85394 23.8178 8.37462 25.9517 7.36659 28.3081C6.47638 30.3765 5.95273 32.5497 5.80872 34.7883C5.79563 34.9716 24.778 54.4253 24.778 54.4253C28.5091 50.6943 35.382 43.8213 35.382 43.8213L48.6043 57.0436L55.9354 49.5815L62.2192 55.9963C62.2192 55.9963 66.0288 51.0477 66.1859 50.8121C67.7569 48.4688 69.0005 46.1385 69.8515 43.8999C70.8726 41.2162 71.3962 38.5848 71.3962 36.0582C71.3962 33.3745 70.8464 30.7693 69.7991 28.3081Z" fill="#8A2BE2"/>
<path d="M62.2585 55.8391L56.0009 49.5815L48.5781 57.0173L35.3821 43.8213L24.7781 54.4252L5.14111 34.7883" stroke="white" stroke-width="1.9637" stroke-miterlimit="10" stroke-linecap="round" stroke-linejoin="round"/>
<path d="M55.9878 28.3735C52.6102 28.3735 49.8872 31.0965 49.8872 34.4741C49.8872 38.1135 53.7361 43.1275 55.3332 45.0388C55.6867 45.4577 56.3151 45.4577 56.6685 45.0388C58.2526 43.1275 62.1014 38.1135 62.1014 34.4741C62.0884 31.0965 59.3654 28.3735 55.9878 28.3735ZM55.9878 36.6603C55.4118 36.6603 54.8489 36.4247 54.443 36.0189C54.0372 35.613 53.8015 35.0501 53.8015 34.4741C53.8015 33.8981 54.0372 33.3351 54.443 32.9293C54.8489 32.5235 55.4118 32.2878 55.9878 32.2878C56.5638 32.2878 57.1267 32.5235 57.5326 32.9293C57.9384 33.3351 58.174 33.8981 58.174 34.4741C58.174 35.0501 57.9384 35.613 57.5326 36.0189C57.1136 36.4247 56.5638 36.6603 55.9878 36.6603Z" fill="white"/>
<path d="M185.783 55.2896H191.788V38.8223H198.278V34.0682H179.262V38.8223H185.783V55.2896Z" fill="#AA67E8"/>
<path d="M204.19 40.824V38.8536H198.701V55.2895H204.456V47.7362C204.456 44.8587 206.066 43.6702 208.396 43.6702C208.819 43.6702 209.178 43.7015 209.694 43.764V38.5721C207.286 38.5877 205.378 39.3384 204.19 40.824Z" fill="#AA67E8"/>
<path d="M217.764 38.5878C215.184 38.5878 212.4 39.2603 210.523 40.4957L212.462 44.4053C213.588 43.5296 215.34 42.9822 216.919 42.9822C219.187 42.9822 220.313 43.9205 220.407 45.5938H217.138C212.04 45.5938 209.835 47.4704 209.835 50.5043C209.835 53.3505 212.025 55.5711 215.965 55.5711C218.358 55.5711 220 54.7579 220.813 53.1785V55.3053H226.177V46.1725C226.162 40.9492 223.097 38.5878 217.764 38.5878ZM217.561 51.9274C216.2 51.9274 215.402 51.2237 215.402 50.2541C215.402 49.2532 216.075 48.5808 217.92 48.5808H220.407V50.0039C219.953 51.3175 218.827 51.9274 217.561 51.9274Z" fill="#AA67E8"/>
<path d="M237.234 55.5711C240.956 55.5711 243.817 53.8978 244.943 51.0516L240.486 48.784C239.705 50.3322 238.547 51.0047 237.218 51.0047C235.216 51.0047 233.637 49.6129 233.637 47.0638C233.637 44.5773 235.216 43.1855 237.218 43.1855C238.547 43.1855 239.705 43.8579 240.486 45.4061L244.943 43.1386C243.817 40.2924 240.971 38.6191 237.234 38.6191C231.713 38.6191 227.804 42.1377 227.804 47.0795C227.788 52.0525 231.713 55.5711 237.234 55.5711Z" fill="#AA67E8"/>
<path d="M257.892 55.2897H264.867L257.47 45.891L264.288 38.8537H257.47L251.59 44.5774V32.786H245.835V55.2897H251.59V51.255L253.294 49.5191L257.892 55.2897Z" fill="#AA67E8"/>
<path d="M268.229 37.0396C270.356 37.0396 271.748 35.7104 271.748 33.8807C271.748 32.1448 270.356 30.9094 268.229 30.9094C266.102 30.9094 264.71 32.2386 264.71 33.9745C264.71 35.7104 266.102 37.0396 268.229 37.0396ZM265.336 55.2896H271.091V38.8537H265.336V55.2896Z" fill="#AA67E8"/>
<path d="M284.337 38.5878C282.272 38.5878 280.427 39.2916 279.113 40.6521V38.8693H273.624V55.3053H279.379V47.361C279.379 44.6243 280.802 43.4827 282.648 43.4827C284.321 43.4827 285.353 44.4835 285.353 46.8449V55.3053H291.108V45.9066C291.139 40.7928 288.199 38.5878 284.337 38.5878Z" fill="#AA67E8"/>
<path d="M305.965 38.8537V40.8554C304.839 39.3072 303.087 38.5878 300.804 38.5878C296.441 38.5878 292.734 41.6842 292.734 46.5009C292.734 51.3488 296.441 54.4452 300.804 54.4452C302.899 54.4452 304.557 53.804 305.683 52.506V53.0534C305.683 55.6337 304.385 57.0255 301.289 57.0255C299.349 57.0255 297.098 56.3531 295.737 55.274L293.641 59.3087C295.643 60.7318 298.646 61.4668 301.805 61.4668C307.935 61.4668 311.454 58.5268 311.454 52.3027V38.8693H305.965V38.8537ZM302.18 49.8631C300.116 49.8631 298.568 48.5026 298.568 46.5009C298.568 44.4991 300.116 43.1699 302.18 43.1699C304.244 43.1699 305.761 44.4991 305.761 46.5009C305.746 48.5026 304.244 49.8631 302.18 49.8631Z" fill="#AA67E8"/>
<path d="M180.06 46.579C180.06 40.8867 176.041 37.3993 170.849 37.3993C165.453 37.3993 161.403 41.2151 161.403 46.5165C161.403 51.7866 165.391 55.6337 171.505 55.6337C174.696 55.6337 177.167 54.6485 178.809 52.7718L176.072 49.8162C174.852 50.9734 173.507 51.5208 171.631 51.5208C168.925 51.5208 167.049 50.1759 166.564 47.9709H179.95C179.997 47.533 180.06 46.97 180.06 46.579ZM170.88 41.2776C173.179 41.2776 174.868 42.732 175.227 44.9683H166.501C166.861 42.7007 168.534 41.2776 170.88 41.2776Z" fill="#8A2BE2"/>
<path d="M154.553 30.9563V39.5418C153.271 38.0874 151.426 37.3993 149.252 37.3993C144.248 37.3993 140.401 40.9492 140.401 46.5165C140.401 52.0838 144.248 55.6337 149.252 55.6337C151.629 55.6337 153.49 54.8831 154.788 53.3349V55.3679H159.698V30.9563H154.553ZM150.143 51.4113C147.579 51.4113 145.608 49.566 145.608 46.5009C145.608 43.4358 147.579 41.5904 150.143 41.5904C152.677 41.5904 154.647 43.4358 154.647 46.5009C154.647 49.5816 152.677 51.4113 150.143 51.4113Z" fill="#8A2BE2"/>
<path d="M136.929 30.6592H131.393L126.952 35.3976H130.971L136.929 30.6592ZM133.801 37.6652V46.4227C133.801 49.6755 132.097 51.1924 129.72 51.1924C127.452 51.1924 126.138 49.8788 126.138 46.9075V37.6652H121.009V47.6738C121.009 53.1316 124.137 55.6337 128.578 55.6337C130.752 55.6337 132.722 54.8049 134.067 53.2567V55.3679H138.931V37.6652H133.801Z" fill="#8A2BE2"/>
<path d="M110.891 37.3993C108.06 37.3993 105.199 38.1499 103.259 39.5418L105.105 43.1229C106.387 42.1065 108.326 41.4809 110.203 41.4809C112.971 41.4809 114.284 42.7633 114.284 44.9683H110.203C104.808 44.9683 102.603 47.142 102.603 50.2697C102.603 53.3348 105.073 55.6337 109.218 55.6337C111.814 55.6337 113.659 54.7736 114.613 53.1628V55.3678H119.414V45.2654C119.414 39.9014 116.286 37.3993 110.891 37.3993ZM110.5 52.1776C108.686 52.1776 107.607 51.3175 107.607 50.0351C107.607 48.8466 108.358 47.9552 110.766 47.9552H114.284V49.7693C113.69 51.38 112.205 52.1776 110.5 52.1776Z" fill="#8A2BE2"/>
<path d="M91.6401 55.7587C98.2239 55.7587 101.414 52.4746 101.414 48.612C101.414 40.1516 88.0276 43.076 88.0276 38.8379C88.0276 37.3836 89.2474 36.2107 92.4064 36.2107C94.4394 36.2107 96.6444 36.805 98.7868 38.0247L100.429 33.9744C98.2864 32.6295 95.3308 31.9414 92.4377 31.9414C85.8852 31.9414 82.7262 35.1942 82.7262 39.1194C82.7262 47.6736 96.1127 44.718 96.1127 49.0186C96.1127 50.426 94.8303 51.4894 91.6714 51.4894C88.9034 51.4894 86.0103 50.5042 84.0711 49.0811L82.257 53.1002C84.29 54.6797 87.9807 55.7587 91.6401 55.7587Z" fill="#8A2BE2"/>
</svg>
