<svg xmlns="http://www.w3.org/2000/svg" viewBox="0 0 100 100" height="70">
    <path class="st0" d="M51.3,67.1h-2.5c-7.2,0-13-5.8-13-13V32.9c0-7.2,5.8-13,13-13h2.5c7.2,0,13,5.8,13,13v21.2
	C64.3,61.3,58.5,67.1,51.3,67.1z" />
    <path
        d="M50.2,38.1h-0.3c-1,0-1.8-0.8-1.8-1.8V31c0-1,0.8-1.8,1.8-1.8h0.3c1,0,1.8,0.8,1.8,1.8v5.3C51.9,37.3,51.1,38.1,50.2,38.1z" />
    <line class="st1" x1="40.3" y1="76.5" x2="50.1" y2="84.2" />
    <line class="st1" x1="59.8" y1="76.5" x2="50.1" y2="84.2" />
</svg>